<mxfile host="app.diagrams.net" agent="Mozilla/5.0 (Windows NT 10.0; Win64; x64) AppleWebKit/537.36 (KHTML, like Gecko) Chrome/138.0.0.0 Safari/537.36" version="28.1.0">
  <diagram id="82BRkEDDebJ3C3gfxGE8" name="Page-1">
    <mxGraphModel dx="1303" dy="701" grid="1" gridSize="10" guides="1" tooltips="1" connect="1" arrows="1" fold="1" page="1" pageScale="1" pageWidth="827" pageHeight="1169" math="0" shadow="0">
      <root>
        <mxCell id="0" />
        <mxCell id="1" parent="0" />
        <mxCell id="_BP-6ZfkmuqVgNiFopnD-1" value="&lt;font style=&quot;font-size: 22px;&quot;&gt;Student Information System&lt;/font&gt;" style="rounded=0;whiteSpace=wrap;html=1;fillColor=#f0a30a;fontColor=#FFFFFF;strokeColor=#BD7000;" parent="1" vertex="1">
          <mxGeometry x="210" y="40" width="440" height="60" as="geometry" />
        </mxCell>
        <mxCell id="_BP-6ZfkmuqVgNiFopnD-22" style="edgeStyle=orthogonalEdgeStyle;rounded=0;orthogonalLoop=1;jettySize=auto;html=1;exitX=0.5;exitY=1;exitDx=0;exitDy=0;" parent="1" source="_BP-6ZfkmuqVgNiFopnD-2" edge="1">
          <mxGeometry relative="1" as="geometry">
            <mxPoint x="130" y="310" as="targetPoint" />
          </mxGeometry>
        </mxCell>
        <mxCell id="_BP-6ZfkmuqVgNiFopnD-25" style="edgeStyle=orthogonalEdgeStyle;rounded=0;orthogonalLoop=1;jettySize=auto;html=1;" parent="1" source="_BP-6ZfkmuqVgNiFopnD-2" edge="1">
          <mxGeometry relative="1" as="geometry">
            <mxPoint x="270" y="180" as="targetPoint" />
          </mxGeometry>
        </mxCell>
        <mxCell id="_BP-6ZfkmuqVgNiFopnD-2" value="&lt;font style=&quot;font-size: 14px;&quot;&gt;Admin&lt;/font&gt;" style="rounded=0;whiteSpace=wrap;html=1;fillColor=#f0a30a;fontColor=#FFFFFF;strokeColor=#BD7000;" parent="1" vertex="1">
          <mxGeometry x="40" y="150" width="180" height="60" as="geometry" />
        </mxCell>
        <mxCell id="_BP-6ZfkmuqVgNiFopnD-33" style="edgeStyle=orthogonalEdgeStyle;rounded=0;orthogonalLoop=1;jettySize=auto;html=1;exitX=0.5;exitY=1;exitDx=0;exitDy=0;" parent="1" source="_BP-6ZfkmuqVgNiFopnD-3" edge="1">
          <mxGeometry relative="1" as="geometry">
            <mxPoint x="135" y="510" as="targetPoint" />
          </mxGeometry>
        </mxCell>
        <mxCell id="_BP-6ZfkmuqVgNiFopnD-3" value="&lt;font style=&quot;font-size: 14px;&quot;&gt;Forgot&amp;nbsp;&lt;/font&gt;&lt;div&gt;&lt;font style=&quot;font-size: 14px;&quot;&gt;password&lt;/font&gt;&lt;/div&gt;" style="ellipse;whiteSpace=wrap;html=1;aspect=fixed;fillColor=#f0a30a;fontColor=#FFFFFF;strokeColor=#BD7000;" parent="1" vertex="1">
          <mxGeometry x="80" y="320" width="110" height="110" as="geometry" />
        </mxCell>
        <mxCell id="_BP-6ZfkmuqVgNiFopnD-4" value="Check&amp;nbsp;&lt;div&gt;Credientials&lt;/div&gt;" style="ellipse;whiteSpace=wrap;html=1;aspect=fixed;fillColor=#f0a30a;fontColor=#FFFFFF;strokeColor=#BD7000;" parent="1" vertex="1">
          <mxGeometry x="275" y="320" width="110" height="110" as="geometry" />
        </mxCell>
        <mxCell id="_BP-6ZfkmuqVgNiFopnD-26" style="edgeStyle=orthogonalEdgeStyle;rounded=0;orthogonalLoop=1;jettySize=auto;html=1;exitX=1;exitY=0.5;exitDx=0;exitDy=0;" parent="1" source="_BP-6ZfkmuqVgNiFopnD-6" edge="1">
          <mxGeometry relative="1" as="geometry">
            <mxPoint x="410" y="180" as="targetPoint" />
          </mxGeometry>
        </mxCell>
        <mxCell id="_BP-6ZfkmuqVgNiFopnD-28" style="edgeStyle=orthogonalEdgeStyle;rounded=0;orthogonalLoop=1;jettySize=auto;html=1;exitX=0.5;exitY=1;exitDx=0;exitDy=0;" parent="1" source="_BP-6ZfkmuqVgNiFopnD-6" edge="1">
          <mxGeometry relative="1" as="geometry">
            <mxPoint x="320" y="310" as="targetPoint" />
          </mxGeometry>
        </mxCell>
        <mxCell id="_BP-6ZfkmuqVgNiFopnD-6" value="Login&lt;div&gt;System&lt;/div&gt;" style="ellipse;whiteSpace=wrap;html=1;aspect=fixed;fillColor=#f0a30a;fontColor=#FFFFFF;strokeColor=#BD7000;" parent="1" vertex="1">
          <mxGeometry x="270" y="130" width="100" height="100" as="geometry" />
        </mxCell>
        <mxCell id="_BP-6ZfkmuqVgNiFopnD-30" style="edgeStyle=orthogonalEdgeStyle;rounded=0;orthogonalLoop=1;jettySize=auto;html=1;exitX=0.5;exitY=1;exitDx=0;exitDy=0;" parent="1" source="_BP-6ZfkmuqVgNiFopnD-7" edge="1">
          <mxGeometry relative="1" as="geometry">
            <mxPoint x="464" y="310" as="targetPoint" />
          </mxGeometry>
        </mxCell>
        <mxCell id="_BP-6ZfkmuqVgNiFopnD-7" value="Check&amp;nbsp;&lt;div&gt;Roles of&lt;/div&gt;&lt;div&gt;Access&lt;/div&gt;" style="ellipse;whiteSpace=wrap;html=1;aspect=fixed;fillColor=#f0a30a;fontColor=#FFFFFF;strokeColor=#BD7000;" parent="1" vertex="1">
          <mxGeometry x="414" y="130" width="100" height="100" as="geometry" />
        </mxCell>
        <mxCell id="_BP-6ZfkmuqVgNiFopnD-40" style="edgeStyle=orthogonalEdgeStyle;rounded=0;orthogonalLoop=1;jettySize=auto;html=1;exitX=0.5;exitY=1;exitDx=0;exitDy=0;" parent="1" source="_BP-6ZfkmuqVgNiFopnD-8" edge="1">
          <mxGeometry relative="1" as="geometry">
            <mxPoint x="485" y="640" as="targetPoint" />
          </mxGeometry>
        </mxCell>
        <mxCell id="_BP-6ZfkmuqVgNiFopnD-8" value="Manage&lt;div&gt;Modules&lt;/div&gt;" style="ellipse;whiteSpace=wrap;html=1;aspect=fixed;fillColor=#f0a30a;fontColor=#FFFFFF;strokeColor=#BD7000;" parent="1" vertex="1">
          <mxGeometry x="430" y="320" width="110" height="110" as="geometry" />
        </mxCell>
        <mxCell id="_BP-6ZfkmuqVgNiFopnD-9" value="Manage Timetable&lt;div&gt;Details&lt;/div&gt;" style="rounded=0;whiteSpace=wrap;html=1;fillColor=#f0a30a;fontColor=#FFFFFF;strokeColor=#BD7000;" parent="1" vertex="1">
          <mxGeometry x="640" y="160" width="170" height="40" as="geometry" />
        </mxCell>
        <mxCell id="_BP-6ZfkmuqVgNiFopnD-10" value="Manage Attendence&lt;div&gt;Details&lt;/div&gt;" style="rounded=0;whiteSpace=wrap;html=1;fillColor=#f0a30a;strokeColor=#BD7000;fontColor=#FFFFFF;" parent="1" vertex="1">
          <mxGeometry x="640" y="240" width="170" height="40" as="geometry" />
        </mxCell>
        <mxCell id="_BP-6ZfkmuqVgNiFopnD-11" value="Manage class details" style="rounded=0;whiteSpace=wrap;html=1;fillColor=#f0a30a;fontColor=#FFFFFF;strokeColor=#BD7000;" parent="1" vertex="1">
          <mxGeometry x="640" y="320" width="170" height="40" as="geometry" />
        </mxCell>
        <mxCell id="_BP-6ZfkmuqVgNiFopnD-12" value="Manage Student details" style="rounded=0;whiteSpace=wrap;html=1;fillColor=#f0a30a;fontColor=#FFFFFF;strokeColor=#BD7000;" parent="1" vertex="1">
          <mxGeometry x="640" y="400" width="170" height="40" as="geometry" />
        </mxCell>
        <mxCell id="_BP-6ZfkmuqVgNiFopnD-13" value="Manage fee details" style="rounded=0;whiteSpace=wrap;html=1;fillColor=#f0a30a;fontColor=#FFFFFF;strokeColor=#BD7000;" parent="1" vertex="1">
          <mxGeometry x="640" y="480" width="170" height="40" as="geometry" />
        </mxCell>
        <mxCell id="_BP-6ZfkmuqVgNiFopnD-14" value="Manage teacher profile" style="rounded=0;whiteSpace=wrap;html=1;fillColor=#f0a30a;fontColor=#FFFFFF;strokeColor=#BD7000;" parent="1" vertex="1">
          <mxGeometry x="640" y="560" width="170" height="40" as="geometry" />
        </mxCell>
        <mxCell id="_BP-6ZfkmuqVgNiFopnD-15" value="Manage report" style="rounded=0;whiteSpace=wrap;html=1;fillColor=#f0a30a;fontColor=#FFFFFF;strokeColor=#BD7000;" parent="1" vertex="1">
          <mxGeometry x="640" y="640" width="170" height="40" as="geometry" />
        </mxCell>
        <mxCell id="_BP-6ZfkmuqVgNiFopnD-16" value="Manage System Admins" style="rounded=0;whiteSpace=wrap;html=1;fillColor=#f0a30a;fontColor=#FFFFFF;strokeColor=#BD7000;" parent="1" vertex="1">
          <mxGeometry x="40" y="660" width="160" height="60" as="geometry" />
        </mxCell>
        <mxCell id="_BP-6ZfkmuqVgNiFopnD-17" value="Manage Roles of User" style="rounded=0;whiteSpace=wrap;html=1;fillColor=#f0a30a;fontColor=#FFFFFF;strokeColor=#BD7000;" parent="1" vertex="1">
          <mxGeometry x="240" y="660" width="160" height="60" as="geometry" />
        </mxCell>
        <mxCell id="_BP-6ZfkmuqVgNiFopnD-18" value="Manage user permission" style="rounded=0;whiteSpace=wrap;html=1;fillColor=#f0a30a;fontColor=#FFFFFF;strokeColor=#BD7000;" parent="1" vertex="1">
          <mxGeometry x="440" y="660" width="150" height="60" as="geometry" />
        </mxCell>
        <mxCell id="_BP-6ZfkmuqVgNiFopnD-32" value="Send Email to&amp;nbsp;&lt;div&gt;User&lt;/div&gt;" style="ellipse;whiteSpace=wrap;html=1;aspect=fixed;fillColor=#f0a30a;fontColor=#FFFFFF;strokeColor=#BD7000;" parent="1" vertex="1">
          <mxGeometry x="80" y="520" width="115" height="115" as="geometry" />
        </mxCell>
        <mxCell id="_BP-6ZfkmuqVgNiFopnD-34" value="" style="endArrow=classic;html=1;rounded=0;entryX=0;entryY=1;entryDx=0;entryDy=0;" parent="1" target="_BP-6ZfkmuqVgNiFopnD-7" edge="1">
          <mxGeometry width="50" height="50" relative="1" as="geometry">
            <mxPoint x="350" y="320" as="sourcePoint" />
            <mxPoint x="400" y="270" as="targetPoint" />
            <Array as="points" />
          </mxGeometry>
        </mxCell>
        <mxCell id="_BP-6ZfkmuqVgNiFopnD-38" value="" style="endArrow=classic;html=1;rounded=0;" parent="1" source="_BP-6ZfkmuqVgNiFopnD-8" edge="1">
          <mxGeometry width="50" height="50" relative="1" as="geometry">
            <mxPoint x="240" y="630" as="sourcePoint" />
            <mxPoint x="200" y="650" as="targetPoint" />
          </mxGeometry>
        </mxCell>
        <mxCell id="_BP-6ZfkmuqVgNiFopnD-41" value="" style="endArrow=classic;html=1;rounded=0;exitX=0.38;exitY=0.956;exitDx=0;exitDy=0;exitPerimeter=0;" parent="1" source="_BP-6ZfkmuqVgNiFopnD-8" edge="1">
          <mxGeometry width="50" height="50" relative="1" as="geometry">
            <mxPoint x="364" y="600" as="sourcePoint" />
            <mxPoint x="320" y="650" as="targetPoint" />
          </mxGeometry>
        </mxCell>
        <mxCell id="_BP-6ZfkmuqVgNiFopnD-42" value="" style="endArrow=classic;html=1;rounded=0;exitX=0.678;exitY=0.971;exitDx=0;exitDy=0;exitPerimeter=0;" parent="1" source="_BP-6ZfkmuqVgNiFopnD-8" edge="1">
          <mxGeometry width="50" height="50" relative="1" as="geometry">
            <mxPoint x="505" y="430" as="sourcePoint" />
            <mxPoint x="630" y="640" as="targetPoint" />
          </mxGeometry>
        </mxCell>
        <mxCell id="_BP-6ZfkmuqVgNiFopnD-44" value="" style="endArrow=classic;html=1;rounded=0;" parent="1" source="_BP-6ZfkmuqVgNiFopnD-8" edge="1">
          <mxGeometry width="50" height="50" relative="1" as="geometry">
            <mxPoint x="550" y="470" as="sourcePoint" />
            <mxPoint x="630" y="570" as="targetPoint" />
          </mxGeometry>
        </mxCell>
        <mxCell id="_BP-6ZfkmuqVgNiFopnD-46" value="" style="endArrow=classic;html=1;rounded=0;" parent="1" source="_BP-6ZfkmuqVgNiFopnD-8" edge="1">
          <mxGeometry width="50" height="50" relative="1" as="geometry">
            <mxPoint x="550" y="440" as="sourcePoint" />
            <mxPoint x="630" y="500" as="targetPoint" />
          </mxGeometry>
        </mxCell>
        <mxCell id="_BP-6ZfkmuqVgNiFopnD-47" value="" style="endArrow=classic;html=1;rounded=0;exitX=0.947;exitY=0.687;exitDx=0;exitDy=0;exitPerimeter=0;" parent="1" source="_BP-6ZfkmuqVgNiFopnD-8" edge="1">
          <mxGeometry width="50" height="50" relative="1" as="geometry">
            <mxPoint x="530" y="390" as="sourcePoint" />
            <mxPoint x="630" y="420" as="targetPoint" />
          </mxGeometry>
        </mxCell>
        <mxCell id="_BP-6ZfkmuqVgNiFopnD-48" value="" style="endArrow=classic;html=1;rounded=0;" parent="1" edge="1">
          <mxGeometry width="50" height="50" relative="1" as="geometry">
            <mxPoint x="540" y="375" as="sourcePoint" />
            <mxPoint x="630" y="350" as="targetPoint" />
          </mxGeometry>
        </mxCell>
        <mxCell id="_BP-6ZfkmuqVgNiFopnD-49" value="" style="endArrow=classic;html=1;rounded=0;exitX=0.947;exitY=0.338;exitDx=0;exitDy=0;exitPerimeter=0;" parent="1" source="_BP-6ZfkmuqVgNiFopnD-8" edge="1">
          <mxGeometry width="50" height="50" relative="1" as="geometry">
            <mxPoint x="540" y="360" as="sourcePoint" />
            <mxPoint x="630" y="270" as="targetPoint" />
          </mxGeometry>
        </mxCell>
        <mxCell id="_BP-6ZfkmuqVgNiFopnD-50" value="" style="endArrow=classic;html=1;rounded=0;exitX=0.925;exitY=0.207;exitDx=0;exitDy=0;exitPerimeter=0;" parent="1" source="_BP-6ZfkmuqVgNiFopnD-8" edge="1">
          <mxGeometry width="50" height="50" relative="1" as="geometry">
            <mxPoint x="540" y="330" as="sourcePoint" />
            <mxPoint x="630" y="190" as="targetPoint" />
          </mxGeometry>
        </mxCell>
      </root>
    </mxGraphModel>
  </diagram>
</mxfile>
